<?xml version="1.0" encoding="UTF-8" standalone="no"?><!DOCTYPE svg PUBLIC "-//W3C//DTD SVG 1.1//EN" "http://www.w3.org/Graphics/SVG/1.1/DTD/svg11.dtd"><svg width="100%" height="100%" viewBox="0 0 663 663" version="1.1" xmlns="http://www.w3.org/2000/svg" xmlns:xlink="http://www.w3.org/1999/xlink" xml:space="preserve" xmlns:serif="http://www.serif.com/" style="fill-rule:evenodd;clip-rule:evenodd;stroke-linejoin:round;stroke-miterlimit:2;"><path d="M662.292,635.768c-0,14.649 -11.875,26.511 -26.525,26.511l-609.244,-0c-14.648,-0 -26.523,-11.862 -26.523,-26.511l-0,-609.26c-0,-14.646 11.875,-26.508 26.523,-26.508l609.244,-0c14.65,-0 26.525,11.862 26.525,26.508l-0,609.26Z" style="fill:#0085CA;fill-rule:nonzero;"/><path d="M532.421,343.995l-18.45,-175.233c-4.325,-41.162 -39.038,-72.412 -80.417,-72.412l-204.819,-0c-41.381,-0 -76.094,31.25 -80.43,72.412l-18.451,175.233c-0.586,5.638 -0.885,11.276 -0.885,16.94l-0,119.583c-0,7.448 6.041,13.477 13.476,13.477l13.477,0l0,47.148c0,7.435 6.042,13.477 13.49,13.477l40.559,0c7.448,0 13.477,-6.042 13.477,-13.477l-0,-47.148l215.523,0l-0,47.148c-0,7.435 6.025,13.477 13.475,13.477l40.571,0c7.437,0 13.466,-6.042 13.466,-13.477l0,-47.148l13.346,0c7.446,0 13.475,-6.029 13.475,-13.477l0,-119.583c0,-5.664 -0.287,-11.302 -0.883,-16.94m-362.931,71.289c-1.315,-16.615 12.447,-30.365 29.062,-29.063c13.06,1.029 23.646,11.628 24.675,24.688c1.315,16.601 -12.448,30.364 -29.063,29.049c-13.047,-1.028 -23.633,-11.601 -24.674,-24.674m-5.209,-76.328l14.571,-138.985c2.161,-20.584 19.518,-36.225 40.221,-36.225l223.839,-0c20.68,-0 38.038,15.612 40.209,36.187l14.716,139.023l-333.556,-0Zm274.765,76.328c-1.3,-16.615 12.45,-30.365 29.062,-29.063c13.063,1.029 23.646,11.628 24.688,24.688c1.304,16.601 -12.459,30.364 -29.063,29.049c-13.058,-1.028 -23.658,-11.601 -24.687,-24.674" style="fill:#fff;fill-rule:nonzero;"/></svg>